<!DOCTYPE svg PUBLIC "-//W3C//DTD SVG 1.1//EN" "http://www.w3.org/Graphics/SVG/1.1/DTD/svg11.dtd">
<!-- Uploaded to: SVG Repo, www.svgrepo.com, Transformed by: SVG Repo Mixer Tools -->
<svg height="800px" width="800px" version="1.1" id="_x32_" xmlns="http://www.w3.org/2000/svg" xmlns:xlink="http://www.w3.org/1999/xlink" viewBox="0 0 512 512" xml:space="preserve" fill="#ffffff" stroke="#ffffff">
<g id="SVGRepo_bgCarrier" stroke-width="0"/>
<g id="SVGRepo_tracerCarrier" stroke-linecap="round" stroke-linejoin="round"/>
<g id="SVGRepo_iconCarrier"> <style type="text/css"> .st0{fill:#ffffff;} </style> <g> <path class="st0" d="M500.444,81.808c-7.07-13.498-18.948-24.783-34.086-34.626c-22.741-14.708-53.256-26.294-89.179-34.455 C341.275,4.6,299.98,0.009,256.008,0C188.953,0.035,128.247,10.607,83.159,28.328C60.607,37.244,41.883,47.902,28.101,60.68 c-6.866,6.42-12.529,13.422-16.545,21.128c-4.017,7.698-6.316,16.202-6.299,24.921v13.13h0.481 c0.875,13.198,3.02,28.594,6.796,45.396c7.707,34.069,22.174,73.732,46.941,110.402c23.376,34.6,56.157,66.532,100.73,87.522 v23.994l6.848,3.716c1.579,0.884,31.426,16.657,88.973,16.639c57.513,0.018,87.378-15.755,88.973-16.639l6.83-3.716v-24.054 c28.8-13.584,52.794-31.691,72.36-52.184c32.06-33.571,52.604-73.252,65.202-110.058c12.598-36.883,17.335-70.815,17.352-94.147 C506.761,98.01,504.461,89.506,500.444,81.808z M473.894,159.471c-7.106,31.46-20.578,68.232-43.08,101.494 c-22.535,33.297-53.858,63.066-97.28,81.696l-7.947,3.398v24.681c-10.675,3.947-33.76,10.538-69.562,10.547 c-26.38,0-45.86-3.578-58.577-7.054c-4.548-1.236-8.188-2.454-11.002-3.493v-24.681l-7.963-3.398 c-28.954-12.426-52.485-29.787-71.673-49.858c-28.783-30.079-47.714-66.379-59.35-100.43 c-11.671-33.982-15.978-65.802-15.944-85.643v-0.309c0.068-4.093,1.064-8.127,3.33-12.512c4.016-7.81,12.409-16.545,25.075-24.707 c18.913-12.314,46.958-23.264,80.7-30.885c33.76-7.646,73.235-12.074,115.387-12.065c64.19-0.035,122.304,10.332,163.221,26.491 c20.441,8.033,36.523,17.55,46.786,27.152c5.132,4.797,8.822,9.543,11.139,14.014c2.316,4.496,3.346,8.624,3.346,12.821 C480.519,119.927,478.63,138.541,473.894,159.471z"/> <path class="st0" d="M417.221,83.13c-17.678-9.954-41.62-17.884-69.888-23.47c-28.268-5.552-60.843-8.71-95.564-8.71 c-52.914,0-100.816,7.286-136.138,19.378c-17.678,6.076-32.249,13.293-42.89,21.9c-5.321,4.316-9.697,9.011-12.821,14.236 c-3.124,5.201-4.961,11.044-4.943,17.086c-0.018,6.033,1.819,11.86,4.943,17.078c5.509,9.148,14.64,16.666,26.413,23.341 c17.661,9.938,41.604,17.859,69.871,23.445c28.268,5.57,60.843,8.728,95.564,8.728c52.914-0.018,100.816-7.294,136.137-19.395 c17.678-6.067,32.249-13.284,42.908-21.9c5.321-4.308,9.68-8.993,12.803-14.219c3.124-5.218,4.961-11.045,4.943-17.078 c0.018-6.041-1.819-11.885-4.943-17.086C438.109,97.323,428.978,89.78,417.221,83.13z M251.769,66.687 c49.962-0.016,95.306,6.788,128.156,17.584c-10.383-0.781-20.578-1.133-30.396-1.133c-47.885,0.009-87.532,7.869-100.455,10.727 c-12.117-10.264-23.942-18.785-34.601-25.89C226.505,67.134,238.983,66.687,251.769,66.687z M120.729,161.857 c-16.511-5.638-29.624-12.349-38.085-19.232c-4.239-3.441-7.295-6.874-9.216-10.075c-1.888-3.227-2.694-6.101-2.712-9.002 c0.018-2.908,0.824-5.8,2.712-9.018c3.209-5.424,9.886-11.492,19.669-17.13c24.2,16.031,56.449,41.698,82.623,77.423 C155.004,171.64,136.348,167.228,120.729,161.857z M196.745,177.561c-26.414-40.239-60.38-69.261-87.274-88.072 c9.062-3.733,19.48-7.174,31.064-10.144c28.731,18.279,71.759,51.687,101.279,100.953 C226.197,180.024,211.093,179.071,196.745,177.561z M259.939,180.298c-27.444-49.576-67.417-84.279-98.104-105.664 c8.65-1.648,17.73-3.047,27.203-4.205c30.122,18.364,79.311,51.806,110.479,107.836 C286.816,179.414,273.567,180.101,259.939,180.298z M409.481,150.246c-15.464,8.744-38.085,16.399-65.185,21.72 c-8.856,1.751-18.245,3.227-27.976,4.462c-6.11-11.68-12.89-22.466-20.149-32.387c13.438-1.553,38.273-3.896,66.301-3.887 c18.313-0.009,37.912,1.09,56.552,3.904C416.243,146.152,413.085,148.229,409.481,150.246z M431.363,130.139 c-22.707-4.308-46.804-5.732-68.892-5.732c-38.103,0-70.145,4.162-77.646,5.208c-6.916-8.203-14.039-15.73-21.247-22.628 c17.798-3.347,49.549-8.119,85.952-8.101c23.479-0.018,48.863,1.99,73.629,7.534c3.072,2.78,5.407,5.526,6.934,8.11 c1.922,3.218,2.728,6.11,2.728,9.018C432.822,125.686,432.377,127.848,431.363,130.139z"/> <polygon class="st0" points="26.195,459.988 485.805,459.988 485.805,426.167 26.195,436.594 "/> <polygon class="st0" points="26.195,501.582 485.805,512 485.805,478.18 26.195,478.18 "/> </g> </g>
</svg>