<!DOCTYPE svg PUBLIC "-//W3C//DTD SVG 1.1//EN" "http://www.w3.org/Graphics/SVG/1.1/DTD/svg11.dtd">
<!-- Uploaded to: SVG Repo, www.svgrepo.com, Transformed by: SVG Repo Mixer Tools -->
<svg fill="#ffffff" height="800px" width="800px" version="1.1" id="Layer_1" xmlns="http://www.w3.org/2000/svg" xmlns:xlink="http://www.w3.org/1999/xlink" viewBox="0 0 512 512" xml:space="preserve">
<g id="SVGRepo_bgCarrier" stroke-width="0"/>
<g id="SVGRepo_tracerCarrier" stroke-linecap="round" stroke-linejoin="round"/>
<g id="SVGRepo_iconCarrier"> <g> <g> <path d="M449.347,140.331c-1.725-1.851-4.141-2.899-6.671-2.899H231.07c-2.53,0-4.946,1.051-6.671,2.901 c-1.725,1.85-2.605,4.333-2.428,6.858l17.511,249.993c0.352,5.025,4.703,8.817,9.737,8.462c5.025-0.352,8.814-4.71,8.462-9.736 l-10.926-155.977h30.786c5.037,0,9.121-4.084,9.121-9.122s-4.084-9.121-9.121-9.121h-32.064l-4.624-66.015h192.041l-4.624,66.015 H307.946c-5.037,0-9.121,4.084-9.121,9.121s4.084,9.122,9.121,9.122h119.046l-15.308,218.551h-149.62l-2.28-32.552 c-0.353-5.025-4.71-8.822-9.736-8.462c-5.025,0.352-8.814,4.712-8.462,9.736l2.874,41.036c0.334,4.778,4.308,8.484,9.098,8.484 h166.631c4.791,0,8.765-3.706,9.098-8.484l22.487-321.052C451.953,144.666,451.072,142.182,449.347,140.331z"/> </g> </g> <g> <g> <path d="M405.19,314.523H268.557c-5.037,0-9.122,4.084-9.122,9.122c0,5.037,4.084,9.121,9.122,9.121H405.19 c5.037,0,9.122-4.084,9.122-9.121C414.311,318.607,410.227,314.523,405.19,314.523z"/> </g> </g> <g> <g> <path d="M402.757,367.293H270.99c-5.037,0-9.121,4.084-9.121,9.121c0,5.038,4.084,9.122,9.121,9.122h131.767 c5.037,0,9.121-4.084,9.121-9.122C411.878,371.377,407.795,367.293,402.757,367.293z"/> </g> </g> <g> <g> <path d="M506.139,72.358l-85.737-32.836c-2.496-0.956-5.284-0.77-7.629,0.51c-2.346,1.278-4.012,3.522-4.561,6.137l-15.049,71.802 c-1.034,4.93,2.126,9.765,7.056,10.799c0.631,0.133,1.26,0.196,1.88,0.196c4.225,0,8.017-2.953,8.918-7.252l12.854-61.327 l75.742,29.009c4.705,1.801,9.979-0.551,11.781-5.255C513.195,79.435,510.843,74.16,506.139,72.358z"/> </g> </g> <g> <g> <path d="M335.654,103.912H9.121c-5.037,0-9.121,4.084-9.121,9.122c0,37.148,18.22,71.932,51.303,97.944 c30.268,23.799,69.734,37.616,111.963,39.359v208.151H118.27c-5.037,0-9.121,4.084-9.121,9.122c0,5.037,4.084,9.121,9.121,9.121 h108.236c5.037,0,9.121-4.084,9.121-9.121c0-5.038-4.085-9.123-9.123-9.123h-44.996V250.334c8.501-0.354,16.955-1.198,25.231-2.53 c4.974-0.8,8.358-5.481,7.556-10.454c-0.8-4.974-5.48-8.357-10.454-7.556c-10.277,1.654-20.86,2.492-31.455,2.492 c-65.581,0-121.723-31.853-143.952-76.609h171.215c5.037,0,9.121-4.084,9.121-9.122c0-5.037-4.084-9.121-9.121-9.121H21.497 c-1.346-4.988-2.297-10.085-2.808-15.278h316.964c5.037,0,9.121-4.084,9.121-9.121 C344.775,107.996,340.691,103.912,335.654,103.912z"/> </g> </g> <g> <g> <path d="M99.153,79.95L89.082,42.05c-1.294-4.868-6.29-7.765-11.159-6.473c-4.868,1.294-7.767,6.289-6.473,11.159l10.071,37.898 c1.086,4.084,4.775,6.781,8.81,6.781c0.776,0,1.564-0.1,2.348-0.308C97.549,89.814,100.447,84.818,99.153,79.95z"/> </g> </g> <g> <g> <circle cx="389.159" cy="265.726" r="9.121"/> </g> </g> <g> <g> <circle cx="338.091" cy="293.091" r="9.121"/> </g> </g> <g> <g> <circle cx="281.538" cy="262.078" r="9.121"/> </g> </g> </g>
</svg>