<svg width="1725" height="1234" viewBox="0 0 1725 1234" fill="none" xmlns="http://www.w3.org/2000/svg">
<g clip-path="url(#clip0_206_64)">
<mask id="mask0_206_64" style="mask-type:luminance" maskUnits="userSpaceOnUse" x="0" y="-1" width="1725" height="1234">
<path d="M0 -0.995943H1724.78V1232.45H0V-0.995943Z" fill="white"/>
</mask>
<g mask="url(#mask0_206_64)">
<path fill-rule="evenodd" clip-rule="evenodd" d="M566.812 562.545C566.812 627.296 514.322 679.785 449.572 679.785H364.893V604.692H449.574C472.85 604.692 491.719 585.823 491.719 562.547V562.544C491.719 539.268 472.85 520.399 449.574 520.399H331.613V814.038H256.52V445.306H449.572C514.322 445.306 566.812 497.796 566.812 562.545Z" fill="white" stroke="white" stroke-width="1.33333"/>
<path fill-rule="evenodd" clip-rule="evenodd" d="M961.078 556.265C961.078 576.079 977.118 592.119 996.931 592.132H1163.14V667.225H996.944C977.131 667.225 961.078 683.278 961.078 703.092C961.078 722.905 977.131 738.958 996.944 738.958H1163.14V814.038H996.931C935.664 814.038 885.984 764.358 885.984 703.092V703.078C885.984 674.945 896.464 649.238 913.744 629.679C896.464 610.119 885.984 584.412 885.984 556.265V556.252C885.984 494.986 935.664 445.306 996.931 445.306H1163.14V520.399H996.944C977.131 520.399 961.078 536.452 961.078 556.265Z" fill="white" stroke="white" stroke-width="1.33333"/>
<path fill-rule="evenodd" clip-rule="evenodd" d="M1266.14 592.132V520.399H1392.52C1412.32 520.399 1428.38 536.452 1428.38 556.265C1428.38 576.079 1412.32 592.132 1392.52 592.132H1266.14ZM1503.48 556.252C1503.48 494.986 1453.8 445.306 1392.52 445.306H1191.05V814.038H1266.14V667.212H1392.09V667.225C1411.9 667.225 1427.96 683.278 1427.96 703.092V814.025H1503.04V703.078C1503.04 675.065 1492.64 649.452 1475.5 629.919C1492.92 610.332 1503.48 584.532 1503.48 556.265V556.252Z" fill="white" stroke="white" stroke-width="1.33333"/>
<path fill-rule="evenodd" clip-rule="evenodd" d="M685.93 596.037C675.041 596.037 666.213 587.209 666.213 576.32V515.283C666.213 504.392 675.041 495.564 685.93 495.564C696.819 495.564 705.647 504.392 705.647 515.283V576.32C705.647 587.209 696.819 596.037 685.93 596.037Z" fill="white" stroke="white" stroke-width="1.33333"/>
<path fill-rule="evenodd" clip-rule="evenodd" d="M852.772 606.065C850.412 653.585 839.625 692.518 830.532 719.545C824.732 736.812 803.546 728.533 803.546 749.772V804.651C803.546 809.835 799.343 814.038 794.159 814.038H662.039C656.855 814.038 652.653 809.835 652.653 804.651V750.225C652.653 729.522 634.039 735.785 625.533 719.545C601.719 673.998 604.839 577.612 604.706 576.319V441.855C604.706 431.419 612.593 422.384 623.002 421.65C629.001 421.226 634.491 423.504 638.359 427.372C641.919 430.946 644.133 435.866 644.133 441.319V576.319C645.146 592.319 654.546 606.439 668.639 612.932C683.506 619.785 697.599 615.412 703.266 613.065C705.386 612.199 707.679 611.759 709.959 611.972C709.972 611.972 709.986 611.972 710.012 611.985C712.626 612.225 714.959 612.905 716.986 613.772C721.426 615.679 723.372 620.905 721.479 625.332L705.519 662.558C703.626 668.652 705.479 674.012 710.746 676.398C712.132 677.025 713.599 677.318 715.026 677.318C718.866 677.318 722.559 675.198 724.386 671.572L724.439 671.452C728.439 661.958 732.452 644.212 742.239 638.065C751.703 632.136 773.543 629.464 788.052 629.425C794.079 629.409 799.322 624.453 799.266 618.428C799.238 615.456 798.03 612.776 796.079 610.825C794.106 608.852 791.386 607.625 788.372 607.625H747.994C737.374 607.625 728.238 599.461 727.742 588.853C727.211 577.529 736.231 568.185 747.439 568.185H816.825C837.439 568.185 853.799 585.479 852.772 606.065Z" fill="white" stroke="white" stroke-width="1.33333"/>
<path fill-rule="evenodd" clip-rule="evenodd" d="M605.078 580.172C604.838 578.919 604.705 577.639 604.705 576.319C604.838 577.612 604.972 578.892 605.078 580.172Z" fill="white" stroke="white" stroke-width="1.33333"/>
<path fill-rule="evenodd" clip-rule="evenodd" d="M747.439 547.182C736.55 547.182 727.721 538.354 727.721 527.464V488.979C727.721 478.09 736.55 469.262 747.439 469.262C758.329 469.262 767.157 478.09 767.157 488.979V527.464C767.157 538.354 758.329 547.182 747.439 547.182Z" fill="white" stroke="white" stroke-width="1.33333"/>
<path fill-rule="evenodd" clip-rule="evenodd" d="M808.95 547.182C798.06 547.182 789.232 538.354 789.232 527.464V416.473C789.232 405.583 798.06 396.755 808.95 396.755C819.839 396.755 828.667 405.583 828.667 416.473V527.464C828.667 538.354 819.839 547.182 808.95 547.182Z" fill="white" stroke="white" stroke-width="1.33333"/>
<path d="M724.571 671.171L724.438 671.451Z" fill="white"/>
<path d="M724.571 671.171L724.438 671.451" stroke="white" stroke-width="1.33333" stroke-miterlimit="10"/>
</g>
<path d="M475.77 1023V948.45H502.86C510.98 948.45 517.77 950.13 523.23 953.49C528.69 956.78 532.785 961.26 535.515 966.93C538.245 972.53 539.61 978.76 539.61 985.62C539.61 993.18 538.105 999.76 535.095 1005.36C532.085 1010.96 527.815 1015.3 522.285 1018.38C516.825 1021.46 510.35 1023 502.86 1023H475.77ZM525.015 985.62C525.015 980.79 524.14 976.555 522.39 972.915C520.64 969.205 518.12 966.335 514.83 964.305C511.54 962.205 507.55 961.155 502.86 961.155H490.26V1010.29H502.86C507.62 1010.29 511.645 1009.24 514.935 1007.14C518.225 1004.97 520.71 1002.03 522.39 998.325C524.14 994.545 525.015 990.31 525.015 985.62ZM602.696 1010.29V1023H550.931V948.45H601.751V961.155H565.421V979.11H596.816V990.87H565.421V1010.29H602.696ZM674.788 1023V974.07L655.678 1010.5H647.593L628.483 974.07V1023H613.993V948.45H629.533L651.583 990.87L673.843 948.45H689.278V1023H674.788ZM736.657 1023.53C731.197 1023.53 726.227 1022.48 721.747 1020.37C717.337 1018.27 713.522 1015.44 710.302 1011.87C707.152 1008.23 704.702 1004.17 702.952 999.69C701.202 995.14 700.327 990.485 700.327 985.725C700.327 980.755 701.237 976.03 703.057 971.55C704.947 967 707.502 962.975 710.722 959.475C714.012 955.905 717.862 953.105 722.272 951.075C726.752 948.975 731.652 947.925 736.972 947.925C742.362 947.925 747.262 949.01 751.672 951.18C756.152 953.35 759.967 956.255 763.117 959.895C766.267 963.535 768.717 967.595 770.467 972.075C772.217 976.555 773.092 981.175 773.092 985.935C773.092 990.835 772.182 995.56 770.362 1000.11C768.542 1004.59 765.987 1008.61 762.697 1012.18C759.477 1015.68 755.627 1018.45 751.147 1020.48C746.737 1022.51 741.907 1023.53 736.657 1023.53ZM715.027 985.725C715.027 988.945 715.517 992.06 716.497 995.07C717.477 998.08 718.877 1000.77 720.697 1003.15C722.587 1005.46 724.862 1007.32 727.522 1008.72C730.252 1010.05 733.332 1010.71 736.762 1010.71C740.262 1010.71 743.377 1010.01 746.107 1008.61C748.837 1007.14 751.112 1005.22 752.932 1002.84C754.752 1000.39 756.117 997.695 757.027 994.755C758.007 991.745 758.497 988.735 758.497 985.725C758.497 982.505 757.972 979.425 756.922 976.485C755.942 973.475 754.507 970.815 752.617 968.505C750.797 966.125 748.522 964.27 745.792 962.94C743.132 961.54 740.122 960.84 736.762 960.84C733.192 960.84 730.042 961.575 727.312 963.045C724.652 964.445 722.412 966.335 720.592 968.715C718.772 971.095 717.372 973.755 716.392 976.695C715.482 979.635 715.027 982.645 715.027 985.725ZM813.508 948.45L833.668 1005.78L853.618 948.45H868.843L840.598 1023H826.633L798.283 948.45H813.508ZM928.565 1010.29V1023H876.8V948.45H927.62V961.155H891.29V979.11H922.685V990.87H891.29V1010.29H928.565ZM939.862 1023V948.45H972.832C976.262 948.45 979.412 949.15 982.282 950.55C985.222 951.95 987.742 953.84 989.842 956.22C992.012 958.6 993.657 961.26 994.777 964.2C995.967 967.14 996.562 970.15 996.562 973.23C996.562 976.38 996.002 979.425 994.882 982.365C993.832 985.235 992.292 987.755 990.262 989.925C988.232 992.095 985.852 993.775 983.122 994.965L1000.13 1023H984.172L968.842 998.01H954.352V1023H939.862ZM954.352 985.305H972.517C974.337 985.305 975.947 984.78 977.347 983.73C978.747 982.61 979.867 981.14 980.707 979.32C981.547 977.5 981.967 975.47 981.967 973.23C981.967 970.85 981.477 968.785 980.497 967.035C979.517 965.215 978.257 963.78 976.717 962.73C975.247 961.68 973.637 961.155 971.887 961.155H954.352V985.305ZM1054.11 967.98C1053.62 967.49 1052.71 966.825 1051.38 965.985C1050.12 965.145 1048.54 964.34 1046.65 963.57C1044.83 962.8 1042.84 962.135 1040.67 961.575C1038.5 960.945 1036.29 960.63 1034.05 960.63C1030.13 960.63 1027.16 961.365 1025.13 962.835C1023.17 964.305 1022.19 966.37 1022.19 969.03C1022.19 971.06 1022.82 972.67 1024.08 973.86C1025.34 975.05 1027.23 976.065 1029.75 976.905C1032.27 977.745 1035.42 978.655 1039.2 979.635C1044.1 980.825 1048.33 982.295 1051.9 984.045C1055.54 985.725 1058.31 987.965 1060.2 990.765C1062.16 993.495 1063.14 997.135 1063.14 1001.68C1063.14 1005.67 1062.4 1009.1 1060.93 1011.97C1059.46 1014.77 1057.43 1017.05 1054.84 1018.8C1052.25 1020.55 1049.31 1021.84 1046.02 1022.68C1042.73 1023.46 1039.23 1023.84 1035.52 1023.84C1031.81 1023.84 1028.1 1023.46 1024.39 1022.68C1020.68 1021.91 1017.11 1020.83 1013.68 1019.43C1010.25 1017.96 1007.1 1016.21 1004.23 1014.18L1010.64 1001.68C1011.27 1002.31 1012.39 1003.15 1014 1004.2C1015.61 1005.18 1017.57 1006.2 1019.88 1007.25C1022.19 1008.23 1024.71 1009.07 1027.44 1009.77C1030.17 1010.47 1032.93 1010.82 1035.73 1010.82C1039.65 1010.82 1042.63 1010.15 1044.66 1008.82C1046.69 1007.49 1047.7 1005.6 1047.7 1003.15C1047.7 1000.91 1046.9 999.165 1045.29 997.905C1043.68 996.645 1041.44 995.56 1038.57 994.65C1035.7 993.67 1032.3 992.62 1028.38 991.5C1023.69 990.17 1019.77 988.7 1016.62 987.09C1013.47 985.41 1011.13 983.31 1009.59 980.79C1008.05 978.27 1007.28 975.12 1007.28 971.34C1007.28 966.23 1008.47 961.96 1010.85 958.53C1013.3 955.03 1016.59 952.405 1020.72 950.655C1024.85 948.835 1029.43 947.925 1034.47 947.925C1037.97 947.925 1041.26 948.31 1044.34 949.08C1047.49 949.85 1050.43 950.865 1053.16 952.125C1055.89 953.385 1058.34 954.75 1060.51 956.22L1054.11 967.98ZM1074.09 1023V948.45H1088.58V1023H1074.09ZM1135.94 1023.53C1130.48 1023.53 1125.51 1022.48 1121.03 1020.37C1116.62 1018.27 1112.81 1015.44 1109.59 1011.87C1106.44 1008.23 1103.99 1004.17 1102.24 999.69C1100.49 995.14 1099.61 990.485 1099.61 985.725C1099.61 980.755 1100.52 976.03 1102.34 971.55C1104.23 967 1106.79 962.975 1110.01 959.475C1113.3 955.905 1117.15 953.105 1121.56 951.075C1126.04 948.975 1130.94 947.925 1136.26 947.925C1141.65 947.925 1146.55 949.01 1150.96 951.18C1155.44 953.35 1159.25 956.255 1162.4 959.895C1165.55 963.535 1168 967.595 1169.75 972.075C1171.5 976.555 1172.38 981.175 1172.38 985.935C1172.38 990.835 1171.47 995.56 1169.65 1000.11C1167.83 1004.59 1165.27 1008.61 1161.98 1012.18C1158.76 1015.68 1154.91 1018.45 1150.43 1020.48C1146.02 1022.51 1141.19 1023.53 1135.94 1023.53ZM1114.31 985.725C1114.31 988.945 1114.8 992.06 1115.78 995.07C1116.76 998.08 1118.16 1000.77 1119.98 1003.15C1121.87 1005.46 1124.15 1007.32 1126.81 1008.72C1129.54 1010.05 1132.62 1010.71 1136.05 1010.71C1139.55 1010.71 1142.66 1010.01 1145.39 1008.61C1148.12 1007.14 1150.4 1005.22 1152.22 1002.84C1154.04 1000.39 1155.4 997.695 1156.31 994.755C1157.29 991.745 1157.78 988.735 1157.78 985.725C1157.78 982.505 1157.26 979.425 1156.21 976.485C1155.23 973.475 1153.79 970.815 1151.9 968.505C1150.08 966.125 1147.81 964.27 1145.08 962.94C1142.42 961.54 1139.41 960.84 1136.05 960.84C1132.48 960.84 1129.33 961.575 1126.6 963.045C1123.94 964.445 1121.7 966.335 1119.88 968.715C1118.06 971.095 1116.66 973.755 1115.68 976.695C1114.77 979.635 1114.31 982.645 1114.31 985.725ZM1197.98 975.12V1023H1183.49V948.45H1195.04L1233.58 997.59V948.555H1248.07V1023H1235.99L1197.98 975.12Z" fill="white"/>
</g>
<defs>
<clipPath id="clip0_206_64">
<rect width="1724.79" height="1233.45" fill="white"/>
</clipPath>
</defs>
</svg>
