<?xml version="1.0" encoding="UTF-8" standalone="no"?>
<svg
   xmlns:dc="http://purl.org/dc/elements/1.1/"
   xmlns:cc="http://creativecommons.org/ns#"
   xmlns:rdf="http://www.w3.org/1999/02/22-rdf-syntax-ns#"
   xmlns:svg="http://www.w3.org/2000/svg"
   xmlns="http://www.w3.org/2000/svg"
   viewBox="0 0 1724.7867 1233.4493"
   height="1233.4493"
   width="1724.7867"
   xml:space="preserve"
   id="svg2"
   version="1.1"><metadata
     id="metadata8"><rdf:RDF><cc:Work
         rdf:about=""><dc:format>image/svg+xml</dc:format><dc:type
           rdf:resource="http://purl.org/dc/dcmitype/StillImage" /></cc:Work></rdf:RDF></metadata><defs
     id="defs6"><clipPath
       id="clipPath18"
       clipPathUnits="userSpaceOnUse"><path
         id="path16"
         d="M 0,925.087 H 1293.591 V 0 H 0 Z" /></clipPath></defs><g
     transform="matrix(1.3333333,0,0,-1.3333333,0,1233.4493)"
     id="g10"><g
       id="g12"><g
         clip-path="url(#clipPath18)"
         id="g14"><g
           transform="translate(425.11,502.4301)"
           id="g20"><path
             id="path22"
             style="fill:#231f20;fill-opacity:1;fill-rule:evenodd;stroke:none"
             d="m 0,0 v 0 c 0,-48.563 -39.368,-87.93 -87.93,-87.93 h -63.51 v 56.32 h 63.511 c 17.457,0 31.609,14.152 31.609,31.609 v 0.002 c 0,17.457 -14.152,31.609 -31.609,31.609 H -176.4 v -220.23 h -56.32 V 87.93 H -87.93 C -39.368,87.93 0,48.562 0,0" /></g><g
           transform="translate(720.81,507.14)"
           id="g24"><path
             id="path26"
             style="fill:#231f20;fill-opacity:1;fill-rule:evenodd;stroke:none"
             d="M 0,0 C 0,-14.86 12.03,-26.89 26.89,-26.9 H 151.55 V -83.22 H 26.9 c -14.86,0 -26.9,-12.04 -26.9,-26.9 0,-14.86 12.04,-26.9 26.9,-26.9 h 124.65 v -56.31 H 26.89 c -45.95,0 -83.21,37.26 -83.21,83.21 v 0.01 c 0,21.1 7.86,40.38 20.82,55.05 -12.96,14.67 -20.82,33.95 -20.82,55.06 v 0.01 c 0,45.95 37.26,83.21 83.21,83.21 H 151.55 V 26.9 H 26.9 C 12.04,26.9 0,14.86 0,0" /></g><g
           transform="translate(949.61,480.24)"
           id="g28"><path
             id="path30"
             style="fill:#231f20;fill-opacity:1;fill-rule:evenodd;stroke:none"
             d="m 0,0 v 53.8 h 94.78 c 14.85,0 26.9,-12.04 26.9,-26.9 C 121.68,12.04 109.63,0 94.78,0 Z m 178,26.91 c 0,45.95 -37.26,83.21 -83.22,83.21 H -56.32 V -166.43 H 0 v 110.12 h 94.46 v -0.01 c 14.86,0 26.9,-12.04 26.9,-26.9 v -83.2 h 56.31 v 83.21 c 0,21.01 -7.8,40.22 -20.65,54.87 C 170.08,-13.65 178,5.7 178,26.9 Z" /></g><g
           transform="translate(514.4484,477.3111)"
           id="g32"><path
             id="path34"
             style="fill:#231f20;fill-opacity:1;fill-rule:evenodd;stroke:none"
             d="m 0,0 v 0 c -8.167,0 -14.788,6.621 -14.788,14.788 v 45.778 c 0,8.168 6.621,14.789 14.788,14.789 8.167,0 14.788,-6.621 14.788,-14.789 V 14.788 C 14.788,6.621 8.167,0 0,0" /></g><g
           transform="translate(639.58,469.79)"
           id="g36"><path
             id="path38"
             style="fill:#231f20;fill-opacity:1;fill-rule:evenodd;stroke:none"
             d="m 0,0 c -1.77,-35.64 -9.86,-64.84 -16.68,-85.11 -4.35,-12.95 -20.24,-6.741 -20.24,-22.67 v -41.16 c 0,-3.888 -3.152,-7.04 -7.04,-7.04 h -99.09 c -3.888,0 -7.04,3.152 -7.04,7.04 v 40.82 c 0,15.527 -13.96,10.83 -20.34,23.01 -17.86,34.16 -15.52,106.45 -15.62,107.42 v 100.848 c 0,7.827 5.915,14.603 13.722,15.154 4.499,0.318 8.617,-1.391 11.518,-4.292 2.67,-2.68 4.33,-6.37 4.33,-10.46 V 22.31 c 0.76,-12 7.81,-22.59 18.38,-27.46 11.15,-5.14 21.72,-1.86 25.97,-0.1 1.59,0.65 3.31,0.98 5.02,0.82 0.01,0 0.02,0 0.04,-0.01 1.96,-0.18 3.71,-0.69 5.23,-1.34 3.33,-1.43 4.79,-5.35 3.37,-8.67 l -11.97,-27.92 c -1.42,-4.57 -0.03,-8.59 3.92,-10.38 1.04,-0.47 2.14,-0.69 3.21,-0.69 2.88,0 5.65,1.59 7.02,4.31 l 0.04,0.09 c 3,7.12 6.01,20.43 13.35,25.04 7.098,4.447 23.478,6.451 34.36,6.48 4.52,0.012 8.452,3.729 8.41,8.248 -0.021,2.229 -0.927,4.239 -2.39,5.702 -1.48,1.48 -3.52,2.4 -5.78,2.4 h -30.284 c -7.965,0 -14.817,6.123 -15.189,14.079 -0.398,8.493 6.367,15.501 14.773,15.501 h 52.04 C -11.5,28.41 0.77,15.44 0,0" /></g><g
           transform="translate(453.81,489.21)"
           id="g40"><path
             id="path42"
             style="fill:#231f20;fill-opacity:1;fill-rule:evenodd;stroke:none"
             d="M 0,0 C -0.18,0.94 -0.28,1.9 -0.28,2.89 -0.18,1.92 -0.08,0.96 0,0" /></g><g
           transform="translate(560.5813,513.9532)"
           id="g44"><path
             id="path46"
             style="fill:#231f20;fill-opacity:1;fill-rule:evenodd;stroke:none"
             d="m 0,0 v 0 c -8.167,0 -14.789,6.621 -14.789,14.788 v 28.864 c 0,8.167 6.622,14.788 14.789,14.788 v 0 c 8.167,0 14.788,-6.621 14.788,-14.788 V 14.788 C 14.788,6.621 8.167,0 0,0" /></g><g
           transform="translate(606.7142,513.9532)"
           id="g48"><path
             id="path50"
             style="fill:#231f20;fill-opacity:1;fill-rule:evenodd;stroke:none"
             d="m 0,0 v 0 c -8.167,0 -14.788,6.621 -14.788,14.788 v 83.244 c 0,8.167 6.621,14.788 14.788,14.788 8.167,0 14.788,-6.621 14.788,-14.788 V 14.788 C 14.788,6.621 8.167,0 0,0" /></g><g
           transform="translate(543.43,420.96)"
           id="g52"><path
             id="path54"
             style="fill:none;stroke:#231f20;stroke-width:1;stroke-linecap:butt;stroke-linejoin:miter;stroke-miterlimit:10;stroke-dasharray:none;stroke-opacity:1"
             d="M 0,0 -0.1,-0.21" /></g></g></g></g></svg>