<?xml version="1.0" encoding="UTF-8" standalone="no" ?>
<!DOCTYPE svg PUBLIC "-//W3C//DTD SVG 1.1//EN" "http://www.w3.org/Graphics/SVG/1.1/DTD/svg11.dtd">
<svg xmlns="http://www.w3.org/2000/svg" xmlns:xlink="http://www.w3.org/1999/xlink" version="1.1" width="1080" height="1080" viewBox="0 0 1080 1080" xml:space="preserve">
<desc>Created with Fabric.js 5.2.4</desc>
<defs>
</defs>
<g transform="matrix(1 0 0 1 540 540)" id="70e03a21-8190-4667-907e-af619247ec2f"  >
<rect style="stroke: none; stroke-width: 1; stroke-dasharray: none; stroke-linecap: butt; stroke-dashoffset: 0; stroke-linejoin: miter; stroke-miterlimit: 4; fill: rgb(255,255,255); fill-rule: nonzero; opacity: 1; visibility: hidden;" vector-effect="non-scaling-stroke"  x="-540" y="-540" rx="0" ry="0" width="1080" height="1080" />
</g>
<g transform="matrix(1 0 0 1 540 540)" id="7ec2ca23-cdbb-4053-a477-ee681fa1bc2a"  >
</g>
<g transform="matrix(1 0 0 1 540 540)"  >
<g style="" vector-effect="non-scaling-stroke"   >
		<g transform="matrix(1.33 0 0 -1.33 -42.8 -59.6)" id="path22" clip-path="url(#CLIPPATH_3)"  >
<clipPath id="CLIPPATH_3" >
	<path transform="matrix(1 0 0 1 28.74 -52.45) translate(-120.58, -185.8)" id="path16" d="M 0 371.595 L 241.159 371.595 L 241.159 0 L 0 0 Z" stroke-linecap="round" />
</clipPath>
<path style="stroke: none; stroke-width: 1; stroke-dasharray: none; stroke-linecap: butt; stroke-dashoffset: 0; stroke-linejoin: miter; stroke-miterlimit: 4; fill: rgb(248,248,248); fill-rule: evenodd; opacity: 1;" vector-effect="non-scaling-stroke"  transform=" translate(0, -37.68)" d="M 0 0 L 0 0 C -8.167 0 -14.788 6.621 -14.788 14.788 L -14.788 60.566 C -14.788 68.73400000000001 -8.167 75.355 0 75.355 L 0 75.355 C 8.167 75.355 14.788 68.73400000000001 14.788 60.566 L 14.788 14.788 C 14.788 6.621 8.167 0 0 0" stroke-linecap="round" />
</g>
		<g transform="matrix(1.33 0 0 -1.33 0 12.42)" id="path26" clip-path="url(#CLIPPATH_4)"  >
<clipPath id="CLIPPATH_4" >
	<path transform="matrix(1 0 0 1 -3.35 1.57) translate(-120.58, -185.8)" id="path16" d="M 0 371.595 L 241.159 371.595 L 241.159 0 L 0 0 Z" stroke-linecap="round" />
</clipPath>
<path style="stroke: none; stroke-width: 1; stroke-dasharray: none; stroke-linecap: butt; stroke-dashoffset: 0; stroke-linejoin: miter; stroke-miterlimit: 4; fill: rgb(248,248,248); fill-rule: evenodd; opacity: 1;" vector-effect="non-scaling-stroke"  transform=" translate(93.03, 8.82)" d="M 0 0 C -1.77 -35.64 -9.86 -64.84 -16.68 -85.11 C -21.03 -98.06 -36.92 -91.851 -36.92 -107.78 L -36.92 -148.94 C -36.92 -152.828 -40.072 -155.98 -43.96 -155.98 L -143.05 -155.98 C -146.93800000000002 -155.98 -150.09 -152.828 -150.09 -148.94 L -150.09 -108.12 C -150.09 -92.593 -164.05 -97.29 -170.43 -85.11 C -188.29000000000002 -50.95 -185.95000000000002 21.340000000000003 -186.05 22.310000000000002 L -186.05 123.158 C -186.05 130.985 -180.13500000000002 137.761 -172.328 138.312 C -167.829 138.63000000000002 -163.711 136.92100000000002 -160.81 134.02 C -158.14000000000001 131.34 -156.48 127.65 -156.48 123.56 L -156.48 22.31 C -155.72 10.309999999999999 -148.67 -0.28000000000000114 -138.1 -5.150000000000002 C -126.94999999999999 -10.290000000000003 -116.38 -7.0100000000000025 -112.13 -5.250000000000002 C -110.53999999999999 -4.600000000000001 -108.82 -4.270000000000001 -107.11 -4.4300000000000015 C -107.1 -4.4300000000000015 -107.09 -4.4300000000000015 -107.07 -4.440000000000001 C -105.11 -4.620000000000001 -103.36 -5.130000000000001 -101.83999999999999 -5.780000000000001 C -98.50999999999999 -7.210000000000001 -97.04999999999998 -11.13 -98.46999999999998 -14.450000000000001 L -110.43999999999998 -42.370000000000005 C -111.85999999999999 -46.940000000000005 -110.46999999999998 -50.96000000000001 -106.51999999999998 -52.75000000000001 C -105.47999999999998 -53.220000000000006 -104.37999999999998 -53.440000000000005 -103.30999999999999 -53.440000000000005 C -100.42999999999999 -53.440000000000005 -97.65999999999998 -51.85 -96.28999999999999 -49.13 L -96.24999999999999 -49.04 C -93.24999999999999 -41.92 -90.23999999999998 -28.61 -82.89999999999999 -24 C -75.80199999999999 -19.553 -59.42199999999999 -17.549 -48.53999999999999 -17.52 C -44.019999999999996 -17.508 -40.087999999999994 -13.791 -40.129999999999995 -9.272 C -40.150999999999996 -7.043 -41.056999999999995 -5.033 -42.519999999999996 -3.5700000000000003 C -43.99999999999999 -2.0900000000000003 -46.04 -1.1700000000000004 -48.3 -1.1700000000000004 L -78.584 -1.1700000000000004 C -86.549 -1.1700000000000004 -93.40100000000001 4.952999999999999 -93.773 12.909 C -94.17099999999999 21.403 -87.40599999999999 28.41 -79 28.41 L -26.96 28.41 C -11.5 28.41 0.77 15.44 0 0" stroke-linecap="round" />
</g>
		<g transform="matrix(1.33 0 0 -1.33 -123.83 -27.15)" id="path30" clip-path="url(#CLIPPATH_5)"  >
<clipPath id="CLIPPATH_5" >
	<path transform="matrix(1 0 0 1 89.52 -28.11) translate(-120.58, -185.8)" id="path16" d="M 0 371.595 L 241.159 371.595 L 241.159 0 L 0 0 Z" stroke-linecap="round" />
</clipPath>
<path style="stroke: none; stroke-width: 1; stroke-dasharray: none; stroke-linecap: butt; stroke-dashoffset: 0; stroke-linejoin: miter; stroke-miterlimit: 4; fill: rgb(248,248,248); fill-rule: evenodd; opacity: 1;" vector-effect="non-scaling-stroke"  transform=" translate(0.14, -1.45)" d="M 0 0 C -0.18 0.94 -0.28 1.9 -0.28 2.89 C -0.18 1.92 -0.08 0.96 0 0" stroke-linecap="round" />
</g>
		<g transform="matrix(1.33 0 0 -1.33 18.71 -97.18)" id="path34" clip-path="url(#CLIPPATH_6)"  >
<clipPath id="CLIPPATH_6" >
	<path transform="matrix(1 0 0 1 -17.39 -80.63) translate(-120.58, -185.8)" id="path16" d="M 0 371.595 L 241.159 371.595 L 241.159 0 L 0 0 Z" stroke-linecap="round" />
</clipPath>
<path style="stroke: none; stroke-width: 1; stroke-dasharray: none; stroke-linecap: butt; stroke-dashoffset: 0; stroke-linejoin: miter; stroke-miterlimit: 4; fill: rgb(248,248,248); fill-rule: evenodd; opacity: 1;" vector-effect="non-scaling-stroke"  transform=" translate(0, -29.22)" d="M 0 0 L 0 0 C -8.167 0 -14.788 6.621 -14.788 14.788 L -14.788 43.652 C -14.788 51.819 -8.167 58.44 0 58.44 L 0 58.44 C 8.167 58.44 14.788 51.818999999999996 14.788 43.652 L 14.788 14.788 C 14.788 6.621 8.167 0 0 0" stroke-linecap="round" />
</g>
		<g transform="matrix(1.33 0 0 -1.33 80.22 -133.43)" id="path38" clip-path="url(#CLIPPATH_7)"  >
<clipPath id="CLIPPATH_7" >
	<path transform="matrix(1 0 0 1 -63.52 -107.82) translate(-120.58, -185.8)" id="path16" d="M 0 371.595 L 241.159 371.595 L 241.159 0 L 0 0 Z" stroke-linecap="round" />
</clipPath>
<path style="stroke: none; stroke-width: 1; stroke-dasharray: none; stroke-linecap: butt; stroke-dashoffset: 0; stroke-linejoin: miter; stroke-miterlimit: 4; fill: rgb(248,248,248); fill-rule: evenodd; opacity: 1;" vector-effect="non-scaling-stroke"  transform=" translate(0, -56.41)" d="M 0 0 L 0 0 C -8.167 0 -14.788 6.621 -14.788 14.788 L -14.788 98.032 C -14.788 106.199 -8.167 112.82 0 112.82 L 0 112.82 C 8.167 112.82 14.788 106.199 14.788 98.032 L 14.788 14.788 C 14.788 6.621 8.167 0 0 0" stroke-linecap="round" />
</g>
		<g transform="matrix(1.33 0 0 -1.33 -4.22 65.92)" id="path42" clip-path="url(#CLIPPATH_8)"  >
<clipPath id="CLIPPATH_8" >
	<path transform="matrix(1 0 0 1 -0.19 41.69) translate(-120.58, -185.8)" id="path16" d="M 0 371.595 L 241.159 371.595 L 241.159 0 L 0 0 Z" stroke-linecap="round" />
</clipPath>
<path style="stroke: rgb(35,31,32); stroke-width: 1; stroke-dasharray: none; stroke-linecap: butt; stroke-dashoffset: 0; stroke-linejoin: miter; stroke-miterlimit: 10; fill: rgb(248,248,248); fill-rule: nonzero; opacity: 1;" vector-effect="non-scaling-stroke"  transform=" translate(0.05, 0.1)" d="M 0 0 L -0.1 -0.21" stroke-linecap="round" />
</g>
</g>
</g>
</svg>