<svg width="1724.7867" height="1233.4493" xmlns="http://www.w3.org/2000/svg" version="1.1" xml:space="preserve">
 <metadata id="metadata8">image/svg+xml</metadata>
 <defs id="defs6">
  <clipPath clipPathUnits="userSpaceOnUse" id="clipPath18">
   <path d="m0,925.837l1293.591,0l0,-925.087l-1293.591,0l0,925.087z" id="path16"/>
  </clipPath>
 </defs>
 <g>
  <title>Layer 1</title>
  <g id="g10" transform="matrix(1.33333 0 0 -1.33333 0 1233.45)">
   <g id="g12">
    <g id="g14" clip-path="url(#clipPath18)">
     <g id="g20">
      <path stroke="#ffffff" fill-rule="evenodd" fill="#fff" d="m425.10999,503.18011l0,0c0,-48.563 -39.368,-87.93 -87.93,-87.93l-63.51,0l0,56.32l63.511,0c17.457,0 31.609,14.152 31.609,31.609l0,0.002c0,17.457 -14.152,31.609 -31.609,31.609l-88.471,0l0,-220.23l-56.32,0l0,276.55l144.79,0c48.562,0 87.93,-39.368 87.93,-87.93" id="path22"/>
     </g>
     <g id="g24">
      <path stroke="#ffffff" fill-rule="evenodd" fill="#fff" d="m720.81,507.89001c0,-14.86 12.03,-26.89 26.89,-26.9l124.66,0l0,-56.32l-124.65,0c-14.86,0 -26.9,-12.04 -26.9,-26.9c0,-14.86 12.04,-26.9 26.9,-26.9l124.65,0l0,-56.31l-124.66,0c-45.95,0 -83.21,37.26 -83.21,83.21l0,0.01c0,21.1 7.86,40.38 20.82,55.05c-12.96,14.67 -20.82,33.95 -20.82,55.06l0,0.01c0,45.95 37.26,83.21 83.21,83.21l124.66,0l0,-56.32l-124.65,0c-14.86,0 -26.9,-12.04 -26.9,-26.9" id="path26"/>
     </g>
     <g id="g28">
      <path stroke="#ffffff" fill-rule="evenodd" fill="#fff" d="m949.60999,480.98999l0,53.8l94.78,0c14.85,0 26.9,-12.04 26.9,-26.9c0,-14.86 -12.05,-26.9 -26.9,-26.9l-94.78,0zm178,26.91c0,45.95 -37.26,83.21 -83.22,83.21l-151.1,0l0,-276.55l56.32,0l0,110.12l94.46,0l0,-0.01c14.86,0 26.9,-12.04 26.9,-26.9l0,-83.2l56.31,0l0,83.21c0,21.01 -7.8,40.22 -20.65,54.87c13.06,14.69 20.98,34.04 20.98,55.24l0,0.01z" id="path30"/>
     </g>
     <g id="g32">
      <path stroke="#ffffff" fill-rule="evenodd" fill="#fff" d="m514.44843,478.0611l0,0c-8.167,0 -14.788,6.621 -14.788,14.788l0,45.778c0,8.168 6.621,14.789 14.788,14.789c8.167,0 14.788,-6.621 14.788,-14.789l0,-45.778c0,-8.167 -6.621,-14.788 -14.788,-14.788" id="path34"/>
     </g>
     <g id="g36">
      <path stroke="#ffffff" fill-rule="evenodd" fill="#fff" d="m639.58002,470.54001c-1.77,-35.64 -9.86,-64.84 -16.68,-85.11c-4.35,-12.95 -20.24,-6.741 -20.24,-22.67l0,-41.16c0,-3.888 -3.152,-7.04 -7.04,-7.04l-99.09,0c-3.888,0 -7.04,3.152 -7.04,7.04l0,40.82c0,15.527 -13.96,10.83 -20.34,23.01c-17.86,34.16 -15.52,106.45 -15.62,107.42l0,100.848c0,7.827 5.915,14.603 13.722,15.154c4.499,0.318 8.617,-1.391 11.518,-4.292c2.67,-2.68 4.33,-6.37 4.33,-10.46l0,-101.25c0.76,-12 7.81,-22.59 18.38,-27.46c11.15,-5.14 21.72,-1.86 25.97,-0.1c1.59,0.65 3.31,0.98 5.02,0.82c0.01,0 0.02,0 0.04,-0.01c1.96,-0.18 3.71,-0.69 5.23,-1.34c3.33,-1.43 4.79,-5.35 3.37,-8.67l-11.97,-27.92c-1.42,-4.57 -0.03,-8.59 3.92,-10.38c1.04,-0.47 2.14,-0.69 3.21,-0.69c2.88,0 5.65,1.59 7.02,4.31l0.04,0.09c3,7.12 6.01,20.43 13.35,25.04c7.098,4.447 23.478,6.451 34.36,6.48c4.52,0.012 8.452,3.729 8.41,8.248c-0.021,2.229 -0.927,4.239 -2.39,5.702c-1.48,1.48 -3.52,2.4 -5.78,2.4l-30.284,0c-7.965,0 -14.817,6.123 -15.189,14.079c-0.398,8.493 6.367,15.501 14.773,15.501l52.04,0c15.46,0 27.73,-12.97 26.96,-28.41" id="path38"/>
     </g>
     <g id="g40">
      <path stroke="#ffffff" fill-rule="evenodd" fill="#fff" d="m453.81,489.95999c-0.18,0.94 -0.28,1.9 -0.28,2.89c0.1,-0.97 0.2,-1.93 0.28,-2.89" id="path42"/>
     </g>
     <g id="g44">
      <path stroke="#ffffff" fill-rule="evenodd" fill="#fff" d="m560.5813,514.70319l0,0c-8.167,0 -14.789,6.621 -14.789,14.788l0,28.864c0,8.167 6.622,14.788 14.789,14.788l0,0c8.167,0 14.788,-6.621 14.788,-14.788l0,-28.864c0,-8.167 -6.621,-14.788 -14.788,-14.788" id="path46"/>
     </g>
     <g id="g48">
      <path stroke="#ffffff" fill-rule="evenodd" fill="#fff" d="m606.71417,514.70319l0,0c-8.167,0 -14.788,6.621 -14.788,14.788l0,83.244c0,8.167 6.621,14.788 14.788,14.788c8.167,0 14.788,-6.621 14.788,-14.788l0,-83.244c0,-8.167 -6.621,-14.788 -14.788,-14.788" id="path50"/>
     </g>
     <g id="g52">
      <path stroke-miterlimit="10" stroke="#ffffff" fill="#fff" d="m543.42999,421.70999l-0.1,-0.21" id="path54"/>
     </g>
    </g>
   </g>
  </g>
 </g>
</svg>